<mxfile host="app.diagrams.net" modified="2024-01-23T02:44:10.759Z" agent="Mozilla/5.0 (Windows NT 10.0; Win64; x64) AppleWebKit/537.36 (KHTML, like Gecko) Chrome/120.0.0.0 Safari/537.36 Edg/120.0.0.0" version="22.1.16" etag="GchbehNer_k-d0m5GGsD" type="github">
  <diagram name="페이지-1" id="H9foKaLW8r6Y9mCxa-UT">
    <mxGraphModel>
      <root>
        <mxCell id="0" />
        <mxCell id="1" parent="0" />
      </root>
    </mxGraphModel>
  </diagram>
</mxfile>
